<mxfile host="app.diagrams.net" modified="2020-09-02T20:59:27.731Z" agent="5.0 (Windows NT 10.0; Win64; x64) AppleWebKit/537.36 (KHTML, like Gecko) Chrome/85.0.4183.83 Safari/537.36" etag="MKHn7_oafCSAZFqtoPLh" version="13.6.6" type="github">
  <diagram id="C5RBs43oDa-KdzZeNtuy" name="Page-1">
    <mxGraphModel dx="1663" dy="2202" grid="1" gridSize="10" guides="1" tooltips="1" connect="1" arrows="1" fold="1" page="1" pageScale="1" pageWidth="827" pageHeight="1169" math="0" shadow="0">
      <root>
        <mxCell id="WIyWlLk6GJQsqaUBKTNV-0" />
        <mxCell id="WIyWlLk6GJQsqaUBKTNV-1" parent="WIyWlLk6GJQsqaUBKTNV-0" />
        <mxCell id="xRk32n43s2WGwWvrwPpY-136" value="Module" style="shape=module;align=left;spacingLeft=20;align=center;verticalAlign=top;labelBackgroundColor=none;fontColor=#000000;" vertex="1" parent="WIyWlLk6GJQsqaUBKTNV-1">
          <mxGeometry x="2590" y="100" width="710" height="334" as="geometry" />
        </mxCell>
        <mxCell id="xRk32n43s2WGwWvrwPpY-19" value="" style="group" vertex="1" connectable="0" parent="WIyWlLk6GJQsqaUBKTNV-1">
          <mxGeometry x="60" y="110" width="620" height="410" as="geometry" />
        </mxCell>
        <mxCell id="xRk32n43s2WGwWvrwPpY-16" value="HomeModule" style="shape=module;align=left;spacingLeft=20;align=center;verticalAlign=top;" vertex="1" parent="xRk32n43s2WGwWvrwPpY-19">
          <mxGeometry width="620" height="410" as="geometry" />
        </mxCell>
        <mxCell id="xRk32n43s2WGwWvrwPpY-1" value="&amp;nbsp;" style="html=1;dropTarget=0;" vertex="1" parent="xRk32n43s2WGwWvrwPpY-19">
          <mxGeometry x="140" y="60" width="180" height="90" as="geometry" />
        </mxCell>
        <mxCell id="xRk32n43s2WGwWvrwPpY-2" value="" style="shape=component;jettyWidth=8;jettyHeight=4;" vertex="1" parent="xRk32n43s2WGwWvrwPpY-1">
          <mxGeometry x="1" width="20" height="20" relative="1" as="geometry">
            <mxPoint x="-27" y="7" as="offset" />
          </mxGeometry>
        </mxCell>
        <mxCell id="xRk32n43s2WGwWvrwPpY-9" value="" style="edgeStyle=orthogonalEdgeStyle;rounded=0;orthogonalLoop=1;jettySize=auto;html=1;" edge="1" parent="xRk32n43s2WGwWvrwPpY-19" source="xRk32n43s2WGwWvrwPpY-1" target="xRk32n43s2WGwWvrwPpY-7">
          <mxGeometry relative="1" as="geometry" />
        </mxCell>
        <mxCell id="xRk32n43s2WGwWvrwPpY-11" value="composition" style="edgeLabel;html=1;align=center;verticalAlign=middle;resizable=0;points=[];" vertex="1" connectable="0" parent="xRk32n43s2WGwWvrwPpY-9">
          <mxGeometry x="0.1897" y="1" relative="1" as="geometry">
            <mxPoint x="-22" as="offset" />
          </mxGeometry>
        </mxCell>
        <mxCell id="xRk32n43s2WGwWvrwPpY-3" value="«Component»&lt;br&gt;&lt;b&gt;HomeDocumentsComponent&lt;/b&gt;" style="html=1;dropTarget=0;" vertex="1" parent="xRk32n43s2WGwWvrwPpY-19">
          <mxGeometry x="40" y="280" width="180" height="90" as="geometry" />
        </mxCell>
        <mxCell id="xRk32n43s2WGwWvrwPpY-4" value="" style="shape=component;jettyWidth=8;jettyHeight=4;" vertex="1" parent="xRk32n43s2WGwWvrwPpY-3">
          <mxGeometry x="1" width="20" height="20" relative="1" as="geometry">
            <mxPoint x="-27" y="7" as="offset" />
          </mxGeometry>
        </mxCell>
        <mxCell id="xRk32n43s2WGwWvrwPpY-5" value="" style="edgeStyle=orthogonalEdgeStyle;rounded=0;orthogonalLoop=1;jettySize=auto;html=1;" edge="1" parent="xRk32n43s2WGwWvrwPpY-19" source="xRk32n43s2WGwWvrwPpY-1" target="xRk32n43s2WGwWvrwPpY-3">
          <mxGeometry relative="1" as="geometry" />
        </mxCell>
        <mxCell id="xRk32n43s2WGwWvrwPpY-6" value="composition" style="edgeLabel;html=1;align=center;verticalAlign=middle;resizable=0;points=[];" vertex="1" connectable="0" parent="xRk32n43s2WGwWvrwPpY-5">
          <mxGeometry x="-0.275" y="2" relative="1" as="geometry">
            <mxPoint x="-42" as="offset" />
          </mxGeometry>
        </mxCell>
        <mxCell id="xRk32n43s2WGwWvrwPpY-7" value="«Component»&lt;br&gt;&lt;b&gt;HomeMessagesComponent&lt;br&gt;redirect&lt;br&gt;&lt;/b&gt;" style="html=1;dropTarget=0;" vertex="1" parent="xRk32n43s2WGwWvrwPpY-19">
          <mxGeometry x="260" y="280" width="180" height="90" as="geometry" />
        </mxCell>
        <mxCell id="xRk32n43s2WGwWvrwPpY-8" value="" style="shape=component;jettyWidth=8;jettyHeight=4;" vertex="1" parent="xRk32n43s2WGwWvrwPpY-7">
          <mxGeometry x="1" width="20" height="20" relative="1" as="geometry">
            <mxPoint x="-27" y="7" as="offset" />
          </mxGeometry>
        </mxCell>
        <mxCell id="xRk32n43s2WGwWvrwPpY-13" value="CommonService" style="whiteSpace=wrap;html=1;" vertex="1" parent="xRk32n43s2WGwWvrwPpY-19">
          <mxGeometry x="470" y="75" width="120" height="60" as="geometry" />
        </mxCell>
        <mxCell id="xRk32n43s2WGwWvrwPpY-14" value="" style="edgeStyle=orthogonalEdgeStyle;rounded=0;orthogonalLoop=1;jettySize=auto;html=1;" edge="1" parent="xRk32n43s2WGwWvrwPpY-19" source="xRk32n43s2WGwWvrwPpY-1" target="xRk32n43s2WGwWvrwPpY-13">
          <mxGeometry relative="1" as="geometry" />
        </mxCell>
        <mxCell id="xRk32n43s2WGwWvrwPpY-15" value="getUser()" style="edgeLabel;html=1;align=center;verticalAlign=middle;resizable=0;points=[];" vertex="1" connectable="0" parent="xRk32n43s2WGwWvrwPpY-14">
          <mxGeometry x="-0.1644" y="-4" relative="1" as="geometry">
            <mxPoint as="offset" />
          </mxGeometry>
        </mxCell>
        <mxCell id="xRk32n43s2WGwWvrwPpY-39" value="" style="edgeStyle=orthogonalEdgeStyle;rounded=0;orthogonalLoop=1;jettySize=auto;html=1;" edge="1" parent="WIyWlLk6GJQsqaUBKTNV-1" source="xRk32n43s2WGwWvrwPpY-37" target="xRk32n43s2WGwWvrwPpY-38">
          <mxGeometry relative="1" as="geometry" />
        </mxCell>
        <mxCell id="xRk32n43s2WGwWvrwPpY-37" value="" style="pointerEvents=1;shadow=0;dashed=0;html=1;strokeColor=none;labelPosition=center;verticalLabelPosition=bottom;verticalAlign=top;align=center;fillColor=#505050;shape=mxgraph.mscae.intune.user_management" vertex="1" parent="WIyWlLk6GJQsqaUBKTNV-1">
          <mxGeometry x="350" y="40" width="50" height="46" as="geometry" />
        </mxCell>
        <mxCell id="xRk32n43s2WGwWvrwPpY-38" value="GESTOR" style="whiteSpace=wrap;html=1;shadow=0;dashed=0;verticalAlign=top;fillColor=#f5f5f5;strokeColor=#666666;fontColor=#333333;" vertex="1" parent="WIyWlLk6GJQsqaUBKTNV-1">
          <mxGeometry x="420" y="49.5" width="65" height="27" as="geometry" />
        </mxCell>
        <mxCell id="xRk32n43s2WGwWvrwPpY-44" value="«Component»&lt;br&gt;&lt;b&gt;BoxGenericComponent&lt;/b&gt;" style="html=1;dropTarget=0;" vertex="1" parent="WIyWlLk6GJQsqaUBKTNV-1">
          <mxGeometry x="250" y="730" width="180" height="90" as="geometry" />
        </mxCell>
        <mxCell id="xRk32n43s2WGwWvrwPpY-45" value="" style="shape=component;jettyWidth=8;jettyHeight=4;" vertex="1" parent="xRk32n43s2WGwWvrwPpY-44">
          <mxGeometry x="1" width="20" height="20" relative="1" as="geometry">
            <mxPoint x="-27" y="7" as="offset" />
          </mxGeometry>
        </mxCell>
        <mxCell id="xRk32n43s2WGwWvrwPpY-46" value="" style="edgeStyle=orthogonalEdgeStyle;rounded=0;orthogonalLoop=1;jettySize=auto;html=1;fontColor=#000000;" edge="1" parent="WIyWlLk6GJQsqaUBKTNV-1" source="xRk32n43s2WGwWvrwPpY-3" target="xRk32n43s2WGwWvrwPpY-44">
          <mxGeometry relative="1" as="geometry" />
        </mxCell>
        <mxCell id="xRk32n43s2WGwWvrwPpY-48" value="composition" style="edgeLabel;html=1;align=center;verticalAlign=middle;resizable=0;points=[];fontColor=#000000;" vertex="1" connectable="0" parent="xRk32n43s2WGwWvrwPpY-46">
          <mxGeometry x="-0.0906" relative="1" as="geometry">
            <mxPoint as="offset" />
          </mxGeometry>
        </mxCell>
        <mxCell id="xRk32n43s2WGwWvrwPpY-47" style="edgeStyle=orthogonalEdgeStyle;rounded=0;orthogonalLoop=1;jettySize=auto;html=1;fontColor=#000000;" edge="1" parent="WIyWlLk6GJQsqaUBKTNV-1" source="xRk32n43s2WGwWvrwPpY-7" target="xRk32n43s2WGwWvrwPpY-44">
          <mxGeometry relative="1" as="geometry" />
        </mxCell>
        <mxCell id="xRk32n43s2WGwWvrwPpY-49" value="composition" style="edgeLabel;html=1;align=center;verticalAlign=middle;resizable=0;points=[];fontColor=#000000;" vertex="1" connectable="0" parent="xRk32n43s2WGwWvrwPpY-47">
          <mxGeometry x="-0.4939" y="2" relative="1" as="geometry">
            <mxPoint as="offset" />
          </mxGeometry>
        </mxCell>
        <mxCell id="xRk32n43s2WGwWvrwPpY-18" value="MessagesService?" style="whiteSpace=wrap;html=1;" vertex="1" parent="WIyWlLk6GJQsqaUBKTNV-1">
          <mxGeometry x="530" y="600" width="120" height="60" as="geometry" />
        </mxCell>
        <mxCell id="xRk32n43s2WGwWvrwPpY-17" value="DocumentsService?" style="whiteSpace=wrap;html=1;" vertex="1" parent="WIyWlLk6GJQsqaUBKTNV-1">
          <mxGeometry x="60" y="680" width="120" height="60" as="geometry" />
        </mxCell>
        <mxCell id="xRk32n43s2WGwWvrwPpY-54" style="edgeStyle=orthogonalEdgeStyle;rounded=0;orthogonalLoop=1;jettySize=auto;html=1;fontColor=#000000;" edge="1" parent="WIyWlLk6GJQsqaUBKTNV-1" source="xRk32n43s2WGwWvrwPpY-7" target="xRk32n43s2WGwWvrwPpY-18">
          <mxGeometry relative="1" as="geometry" />
        </mxCell>
        <mxCell id="xRk32n43s2WGwWvrwPpY-87" value="getChatsWithNewsMessages()" style="edgeLabel;html=1;align=center;verticalAlign=middle;resizable=0;points=[];fontColor=#000000;" vertex="1" connectable="0" parent="xRk32n43s2WGwWvrwPpY-54">
          <mxGeometry x="0.1675" y="-1" relative="1" as="geometry">
            <mxPoint as="offset" />
          </mxGeometry>
        </mxCell>
        <mxCell id="xRk32n43s2WGwWvrwPpY-55" style="edgeStyle=orthogonalEdgeStyle;rounded=0;orthogonalLoop=1;jettySize=auto;html=1;fontColor=#000000;" edge="1" parent="WIyWlLk6GJQsqaUBKTNV-1" source="xRk32n43s2WGwWvrwPpY-3" target="xRk32n43s2WGwWvrwPpY-17">
          <mxGeometry relative="1" as="geometry">
            <Array as="points">
              <mxPoint x="130" y="660" />
              <mxPoint x="130" y="660" />
            </Array>
          </mxGeometry>
        </mxCell>
        <mxCell id="xRk32n43s2WGwWvrwPpY-86" value="getNewDocuments()" style="edgeLabel;html=1;align=center;verticalAlign=middle;resizable=0;points=[];fontColor=#000000;" vertex="1" connectable="0" parent="xRk32n43s2WGwWvrwPpY-55">
          <mxGeometry x="0.1529" y="4" relative="1" as="geometry">
            <mxPoint as="offset" />
          </mxGeometry>
        </mxCell>
        <mxCell id="xRk32n43s2WGwWvrwPpY-56" value="" style="group" vertex="1" connectable="0" parent="WIyWlLk6GJQsqaUBKTNV-1">
          <mxGeometry x="790" y="110" width="1730" height="450" as="geometry" />
        </mxCell>
        <mxCell id="xRk32n43s2WGwWvrwPpY-57" value="HomeModule" style="shape=module;align=left;spacingLeft=20;align=center;verticalAlign=top;" vertex="1" parent="xRk32n43s2WGwWvrwPpY-56">
          <mxGeometry width="1610" height="450" as="geometry" />
        </mxCell>
        <mxCell id="xRk32n43s2WGwWvrwPpY-83" value="composition" style="edgeStyle=orthogonalEdgeStyle;rounded=0;orthogonalLoop=1;jettySize=auto;html=1;fontColor=#000000;" edge="1" parent="xRk32n43s2WGwWvrwPpY-56" source="xRk32n43s2WGwWvrwPpY-58" target="xRk32n43s2WGwWvrwPpY-81">
          <mxGeometry relative="1" as="geometry">
            <Array as="points">
              <mxPoint x="473.3766233766234" y="190" />
              <mxPoint x="704.8051948051948" y="190" />
            </Array>
          </mxGeometry>
        </mxCell>
        <mxCell id="xRk32n43s2WGwWvrwPpY-58" value="«Component»&lt;br&gt;&lt;b&gt;HomeDashboardComponent&lt;/b&gt;" style="html=1;dropTarget=0;" vertex="1" parent="xRk32n43s2WGwWvrwPpY-56">
          <mxGeometry x="378.7012987012987" y="60" width="189.35064935064935" height="90" as="geometry" />
        </mxCell>
        <mxCell id="xRk32n43s2WGwWvrwPpY-59" value="" style="shape=component;jettyWidth=8;jettyHeight=4;" vertex="1" parent="xRk32n43s2WGwWvrwPpY-58">
          <mxGeometry x="1" width="20" height="20" relative="1" as="geometry">
            <mxPoint x="-27" y="7" as="offset" />
          </mxGeometry>
        </mxCell>
        <mxCell id="xRk32n43s2WGwWvrwPpY-60" value="" style="edgeStyle=orthogonalEdgeStyle;rounded=0;orthogonalLoop=1;jettySize=auto;html=1;" edge="1" parent="xRk32n43s2WGwWvrwPpY-56" source="xRk32n43s2WGwWvrwPpY-58" target="xRk32n43s2WGwWvrwPpY-66">
          <mxGeometry relative="1" as="geometry">
            <Array as="points">
              <mxPoint x="450" y="215" />
              <mxPoint x="368" y="215" />
            </Array>
          </mxGeometry>
        </mxCell>
        <mxCell id="xRk32n43s2WGwWvrwPpY-61" value="composition" style="edgeLabel;html=1;align=center;verticalAlign=middle;resizable=0;points=[];" vertex="1" connectable="0" parent="xRk32n43s2WGwWvrwPpY-60">
          <mxGeometry x="0.1897" y="1" relative="1" as="geometry">
            <mxPoint x="-22" as="offset" />
          </mxGeometry>
        </mxCell>
        <mxCell id="xRk32n43s2WGwWvrwPpY-62" value="«Component»&lt;br&gt;&lt;b&gt;HomeDocumentsComponent&lt;/b&gt;" style="html=1;dropTarget=0;" vertex="1" parent="xRk32n43s2WGwWvrwPpY-56">
          <mxGeometry x="42.07792207792208" y="280" width="189.35064935064935" height="90" as="geometry" />
        </mxCell>
        <mxCell id="xRk32n43s2WGwWvrwPpY-63" value="" style="shape=component;jettyWidth=8;jettyHeight=4;" vertex="1" parent="xRk32n43s2WGwWvrwPpY-62">
          <mxGeometry x="1" width="20" height="20" relative="1" as="geometry">
            <mxPoint x="-27" y="7" as="offset" />
          </mxGeometry>
        </mxCell>
        <mxCell id="xRk32n43s2WGwWvrwPpY-64" value="" style="edgeStyle=orthogonalEdgeStyle;rounded=0;orthogonalLoop=1;jettySize=auto;html=1;" edge="1" parent="xRk32n43s2WGwWvrwPpY-56" source="xRk32n43s2WGwWvrwPpY-58" target="xRk32n43s2WGwWvrwPpY-62">
          <mxGeometry relative="1" as="geometry" />
        </mxCell>
        <mxCell id="xRk32n43s2WGwWvrwPpY-65" value="composition" style="edgeLabel;html=1;align=center;verticalAlign=middle;resizable=0;points=[];" vertex="1" connectable="0" parent="xRk32n43s2WGwWvrwPpY-64">
          <mxGeometry x="-0.275" y="2" relative="1" as="geometry">
            <mxPoint x="-42" as="offset" />
          </mxGeometry>
        </mxCell>
        <mxCell id="xRk32n43s2WGwWvrwPpY-66" value="«Component»&lt;br&gt;&lt;b&gt;HomeMessagesComponent&lt;/b&gt;" style="html=1;dropTarget=0;" vertex="1" parent="xRk32n43s2WGwWvrwPpY-56">
          <mxGeometry x="273.5064935064935" y="280" width="189.35064935064935" height="90" as="geometry" />
        </mxCell>
        <mxCell id="xRk32n43s2WGwWvrwPpY-67" value="" style="shape=component;jettyWidth=8;jettyHeight=4;" vertex="1" parent="xRk32n43s2WGwWvrwPpY-66">
          <mxGeometry x="1" width="20" height="20" relative="1" as="geometry">
            <mxPoint x="-27" y="7" as="offset" />
          </mxGeometry>
        </mxCell>
        <mxCell id="xRk32n43s2WGwWvrwPpY-68" value="CommonService" style="whiteSpace=wrap;html=1;" vertex="1" parent="xRk32n43s2WGwWvrwPpY-56">
          <mxGeometry x="1019.9993506493506" y="10" width="126.23376623376623" height="60" as="geometry" />
        </mxCell>
        <mxCell id="xRk32n43s2WGwWvrwPpY-69" value="" style="edgeStyle=orthogonalEdgeStyle;rounded=0;orthogonalLoop=1;jettySize=auto;html=1;" edge="1" parent="xRk32n43s2WGwWvrwPpY-56" source="xRk32n43s2WGwWvrwPpY-107" target="xRk32n43s2WGwWvrwPpY-68">
          <mxGeometry relative="1" as="geometry" />
        </mxCell>
        <mxCell id="xRk32n43s2WGwWvrwPpY-70" value="getUser()" style="edgeLabel;html=1;align=center;verticalAlign=middle;resizable=0;points=[];" vertex="1" connectable="0" parent="xRk32n43s2WGwWvrwPpY-69">
          <mxGeometry x="-0.1644" y="-4" relative="1" as="geometry">
            <mxPoint as="offset" />
          </mxGeometry>
        </mxCell>
        <mxCell id="xRk32n43s2WGwWvrwPpY-81" value="«Component»&lt;br&gt;&lt;b&gt;HomeComunicationsComponent&lt;/b&gt;" style="html=1;dropTarget=0;" vertex="1" parent="xRk32n43s2WGwWvrwPpY-56">
          <mxGeometry x="580" y="280" width="219.48" height="90" as="geometry" />
        </mxCell>
        <mxCell id="xRk32n43s2WGwWvrwPpY-82" value="" style="shape=component;jettyWidth=8;jettyHeight=4;" vertex="1" parent="xRk32n43s2WGwWvrwPpY-81">
          <mxGeometry x="1" width="20" height="20" relative="1" as="geometry">
            <mxPoint x="-27" y="7" as="offset" />
          </mxGeometry>
        </mxCell>
        <mxCell id="xRk32n43s2WGwWvrwPpY-111" value="tratamento do perfil do participante" style="edgeStyle=orthogonalEdgeStyle;rounded=0;orthogonalLoop=1;jettySize=auto;html=1;fontColor=#000000;" edge="1" parent="xRk32n43s2WGwWvrwPpY-56" source="xRk32n43s2WGwWvrwPpY-107" target="xRk32n43s2WGwWvrwPpY-110">
          <mxGeometry relative="1" as="geometry" />
        </mxCell>
        <mxCell id="xRk32n43s2WGwWvrwPpY-121" value="" style="edgeStyle=orthogonalEdgeStyle;rounded=0;orthogonalLoop=1;jettySize=auto;html=1;fontColor=#000000;" edge="1" parent="xRk32n43s2WGwWvrwPpY-56" source="xRk32n43s2WGwWvrwPpY-110" target="xRk32n43s2WGwWvrwPpY-119">
          <mxGeometry relative="1" as="geometry" />
        </mxCell>
        <mxCell id="xRk32n43s2WGwWvrwPpY-125" value="composition interna, se perfil = &quot;duvida&quot;" style="edgeLabel;html=1;align=center;verticalAlign=middle;resizable=0;points=[];fontColor=#000000;" vertex="1" connectable="0" parent="xRk32n43s2WGwWvrwPpY-121">
          <mxGeometry x="0.2226" y="2" relative="1" as="geometry">
            <mxPoint as="offset" />
          </mxGeometry>
        </mxCell>
        <mxCell id="xRk32n43s2WGwWvrwPpY-107" value="«Component»&lt;br&gt;&lt;b&gt;HomeComponent&lt;/b&gt;" style="html=1;dropTarget=0;" vertex="1" parent="xRk32n43s2WGwWvrwPpY-56">
          <mxGeometry x="970" y="100" width="187.79" height="90" as="geometry" />
        </mxCell>
        <mxCell id="xRk32n43s2WGwWvrwPpY-108" value="" style="shape=component;jettyWidth=8;jettyHeight=4;" vertex="1" parent="xRk32n43s2WGwWvrwPpY-107">
          <mxGeometry x="1" width="20" height="20" relative="1" as="geometry">
            <mxPoint x="-27" y="7" as="offset" />
          </mxGeometry>
        </mxCell>
        <mxCell id="xRk32n43s2WGwWvrwPpY-112" style="edgeStyle=orthogonalEdgeStyle;rounded=0;orthogonalLoop=1;jettySize=auto;html=1;entryX=1;entryY=0.5;entryDx=0;entryDy=0;fontColor=#000000;" edge="1" parent="xRk32n43s2WGwWvrwPpY-56" source="xRk32n43s2WGwWvrwPpY-110" target="xRk32n43s2WGwWvrwPpY-58">
          <mxGeometry relative="1" as="geometry">
            <Array as="points">
              <mxPoint x="794" y="250" />
              <mxPoint x="794" y="105" />
            </Array>
          </mxGeometry>
        </mxCell>
        <mxCell id="xRk32n43s2WGwWvrwPpY-113" value="composition se perfil = &quot;master?&quot; participante" style="edgeLabel;html=1;align=center;verticalAlign=middle;resizable=0;points=[];fontColor=#000000;" vertex="1" connectable="0" parent="xRk32n43s2WGwWvrwPpY-112">
          <mxGeometry x="0.3948" y="2" relative="1" as="geometry">
            <mxPoint as="offset" />
          </mxGeometry>
        </mxCell>
        <mxCell id="xRk32n43s2WGwWvrwPpY-117" style="edgeStyle=orthogonalEdgeStyle;rounded=0;orthogonalLoop=1;jettySize=auto;html=1;fontColor=#000000;" edge="1" parent="xRk32n43s2WGwWvrwPpY-56" source="xRk32n43s2WGwWvrwPpY-110" target="xRk32n43s2WGwWvrwPpY-114">
          <mxGeometry relative="1" as="geometry">
            <Array as="points">
              <mxPoint x="1040" y="280" />
              <mxPoint x="1040" y="370" />
            </Array>
          </mxGeometry>
        </mxCell>
        <mxCell id="xRk32n43s2WGwWvrwPpY-118" value="composition se perfil = &quot;novo_arranjo?&quot; &lt;br&gt;futuro participante&lt;br&gt;@Input participant_id" style="edgeLabel;html=1;align=center;verticalAlign=middle;resizable=0;points=[];fontColor=#000000;" vertex="1" connectable="0" parent="xRk32n43s2WGwWvrwPpY-117">
          <mxGeometry x="-0.5666" y="2" relative="1" as="geometry">
            <mxPoint x="115.78999999999999" y="27.86" as="offset" />
          </mxGeometry>
        </mxCell>
        <mxCell id="xRk32n43s2WGwWvrwPpY-110" value="condicional" style="rhombus;whiteSpace=wrap;html=1;labelBackgroundColor=none;fontColor=#000000;" vertex="1" parent="xRk32n43s2WGwWvrwPpY-56">
          <mxGeometry x="1020" y="240" width="80" height="80" as="geometry" />
        </mxCell>
        <mxCell id="xRk32n43s2WGwWvrwPpY-114" value="«Component»&lt;br&gt;&lt;b&gt;ArrangementManagementDashboard&lt;br&gt;&lt;br&gt;Parametrizar ou só excluir?&lt;br&gt;&lt;/b&gt;" style="html=1;dropTarget=0;" vertex="1" parent="xRk32n43s2WGwWvrwPpY-56">
          <mxGeometry x="1330" y="330" width="240" height="90" as="geometry" />
        </mxCell>
        <mxCell id="xRk32n43s2WGwWvrwPpY-115" value="" style="shape=component;jettyWidth=8;jettyHeight=4;" vertex="1" parent="xRk32n43s2WGwWvrwPpY-114">
          <mxGeometry x="1" width="20" height="20" relative="1" as="geometry">
            <mxPoint x="-27" y="7" as="offset" />
          </mxGeometry>
        </mxCell>
        <mxCell id="xRk32n43s2WGwWvrwPpY-119" value="&amp;lt;ng-container&amp;gt;&lt;br&gt;vox-alert com a mensagem&lt;br&gt;&amp;lt;/ng-container&amp;gt;" style="html=1;dropTarget=0;" vertex="1" parent="xRk32n43s2WGwWvrwPpY-56">
          <mxGeometry x="1330" y="100" width="187.79" height="90" as="geometry" />
        </mxCell>
        <mxCell id="xRk32n43s2WGwWvrwPpY-120" value="" style="shape=component;jettyWidth=8;jettyHeight=4;" vertex="1" parent="xRk32n43s2WGwWvrwPpY-119">
          <mxGeometry x="1" width="20" height="20" relative="1" as="geometry">
            <mxPoint x="-27" y="7" as="offset" />
          </mxGeometry>
        </mxCell>
        <mxCell id="xRk32n43s2WGwWvrwPpY-71" value="«Component»&lt;br&gt;&lt;b&gt;BoxGenericComponent&lt;/b&gt;" style="html=1;dropTarget=0;" vertex="1" parent="WIyWlLk6GJQsqaUBKTNV-1">
          <mxGeometry x="980" y="730" width="180" height="90" as="geometry" />
        </mxCell>
        <mxCell id="xRk32n43s2WGwWvrwPpY-72" value="" style="shape=component;jettyWidth=8;jettyHeight=4;" vertex="1" parent="xRk32n43s2WGwWvrwPpY-71">
          <mxGeometry x="1" width="20" height="20" relative="1" as="geometry">
            <mxPoint x="-27" y="7" as="offset" />
          </mxGeometry>
        </mxCell>
        <mxCell id="xRk32n43s2WGwWvrwPpY-73" value="" style="edgeStyle=orthogonalEdgeStyle;rounded=0;orthogonalLoop=1;jettySize=auto;html=1;fontColor=#000000;" edge="1" parent="WIyWlLk6GJQsqaUBKTNV-1" source="xRk32n43s2WGwWvrwPpY-62" target="xRk32n43s2WGwWvrwPpY-71">
          <mxGeometry relative="1" as="geometry" />
        </mxCell>
        <mxCell id="xRk32n43s2WGwWvrwPpY-74" value="composition" style="edgeLabel;html=1;align=center;verticalAlign=middle;resizable=0;points=[];fontColor=#000000;" vertex="1" connectable="0" parent="xRk32n43s2WGwWvrwPpY-73">
          <mxGeometry x="-0.0906" relative="1" as="geometry">
            <mxPoint as="offset" />
          </mxGeometry>
        </mxCell>
        <mxCell id="xRk32n43s2WGwWvrwPpY-75" style="edgeStyle=orthogonalEdgeStyle;rounded=0;orthogonalLoop=1;jettySize=auto;html=1;fontColor=#000000;" edge="1" parent="WIyWlLk6GJQsqaUBKTNV-1" source="xRk32n43s2WGwWvrwPpY-66" target="xRk32n43s2WGwWvrwPpY-71">
          <mxGeometry relative="1" as="geometry" />
        </mxCell>
        <mxCell id="xRk32n43s2WGwWvrwPpY-76" value="composition" style="edgeLabel;html=1;align=center;verticalAlign=middle;resizable=0;points=[];fontColor=#000000;" vertex="1" connectable="0" parent="xRk32n43s2WGwWvrwPpY-75">
          <mxGeometry x="-0.4939" y="2" relative="1" as="geometry">
            <mxPoint as="offset" />
          </mxGeometry>
        </mxCell>
        <mxCell id="xRk32n43s2WGwWvrwPpY-77" value="MessagesService?" style="whiteSpace=wrap;html=1;" vertex="1" parent="WIyWlLk6GJQsqaUBKTNV-1">
          <mxGeometry x="1252.86" y="660" width="120" height="60" as="geometry" />
        </mxCell>
        <mxCell id="xRk32n43s2WGwWvrwPpY-78" value="DocumentsService?" style="whiteSpace=wrap;html=1;" vertex="1" parent="WIyWlLk6GJQsqaUBKTNV-1">
          <mxGeometry x="810" y="650" width="120" height="60" as="geometry" />
        </mxCell>
        <mxCell id="xRk32n43s2WGwWvrwPpY-79" value="getChatsWithNewsMessages()" style="edgeStyle=orthogonalEdgeStyle;rounded=0;orthogonalLoop=1;jettySize=auto;html=1;fontColor=#000000;" edge="1" parent="WIyWlLk6GJQsqaUBKTNV-1" source="xRk32n43s2WGwWvrwPpY-66" target="xRk32n43s2WGwWvrwPpY-77">
          <mxGeometry relative="1" as="geometry">
            <Array as="points">
              <mxPoint x="1220" y="570" />
              <mxPoint x="1313" y="570" />
            </Array>
          </mxGeometry>
        </mxCell>
        <mxCell id="xRk32n43s2WGwWvrwPpY-80" style="edgeStyle=orthogonalEdgeStyle;rounded=0;orthogonalLoop=1;jettySize=auto;html=1;fontColor=#000000;" edge="1" parent="WIyWlLk6GJQsqaUBKTNV-1" source="xRk32n43s2WGwWvrwPpY-62" target="xRk32n43s2WGwWvrwPpY-78">
          <mxGeometry relative="1" as="geometry">
            <Array as="points">
              <mxPoint x="860" y="640" />
              <mxPoint x="860" y="640" />
            </Array>
          </mxGeometry>
        </mxCell>
        <mxCell id="xRk32n43s2WGwWvrwPpY-85" value="getNewDocuments()" style="edgeLabel;html=1;align=center;verticalAlign=middle;resizable=0;points=[];fontColor=#000000;" vertex="1" connectable="0" parent="xRk32n43s2WGwWvrwPpY-80">
          <mxGeometry x="0.8824" y="98" relative="1" as="geometry">
            <mxPoint x="-96" y="-98" as="offset" />
          </mxGeometry>
        </mxCell>
        <mxCell id="xRk32n43s2WGwWvrwPpY-40" value="" style="shape=actor;whiteSpace=wrap;html=1;labelBackgroundColor=#404040;fontColor=#F7F7F7;" vertex="1" parent="WIyWlLk6GJQsqaUBKTNV-1">
          <mxGeometry x="1500" y="10" width="26.67" height="40" as="geometry" />
        </mxCell>
        <mxCell id="xRk32n43s2WGwWvrwPpY-41" value="Participante" style="whiteSpace=wrap;html=1;labelBackgroundColor=none;" vertex="1" parent="WIyWlLk6GJQsqaUBKTNV-1">
          <mxGeometry x="1570" y="20" width="100" height="30" as="geometry" />
        </mxCell>
        <mxCell id="xRk32n43s2WGwWvrwPpY-42" value="" style="edgeStyle=orthogonalEdgeStyle;rounded=0;orthogonalLoop=1;jettySize=auto;html=1;fontColor=#F7F7F7;" edge="1" parent="WIyWlLk6GJQsqaUBKTNV-1" source="xRk32n43s2WGwWvrwPpY-40" target="xRk32n43s2WGwWvrwPpY-41">
          <mxGeometry relative="1" as="geometry" />
        </mxCell>
        <mxCell id="xRk32n43s2WGwWvrwPpY-140" style="edgeStyle=orthogonalEdgeStyle;rounded=0;orthogonalLoop=1;jettySize=auto;html=1;fontColor=#000000;" edge="1" parent="WIyWlLk6GJQsqaUBKTNV-1" source="xRk32n43s2WGwWvrwPpY-133" target="xRk32n43s2WGwWvrwPpY-139">
          <mxGeometry relative="1" as="geometry" />
        </mxCell>
        <mxCell id="xRk32n43s2WGwWvrwPpY-141" value="createParticipant" style="edgeLabel;html=1;align=center;verticalAlign=middle;resizable=0;points=[];fontColor=#000000;" vertex="1" connectable="0" parent="xRk32n43s2WGwWvrwPpY-140">
          <mxGeometry x="0.2246" y="1" relative="1" as="geometry">
            <mxPoint as="offset" />
          </mxGeometry>
        </mxCell>
        <mxCell id="xRk32n43s2WGwWvrwPpY-143" style="edgeStyle=orthogonalEdgeStyle;rounded=0;orthogonalLoop=1;jettySize=auto;html=1;fontColor=#000000;" edge="1" parent="WIyWlLk6GJQsqaUBKTNV-1" source="xRk32n43s2WGwWvrwPpY-133" target="xRk32n43s2WGwWvrwPpY-139">
          <mxGeometry relative="1" as="geometry">
            <Array as="points">
              <mxPoint x="2690" y="360" />
            </Array>
          </mxGeometry>
        </mxCell>
        <mxCell id="xRk32n43s2WGwWvrwPpY-144" value="getPapelArranjo" style="edgeLabel;html=1;align=center;verticalAlign=middle;resizable=0;points=[];fontColor=#000000;" vertex="1" connectable="0" parent="xRk32n43s2WGwWvrwPpY-143">
          <mxGeometry x="0.028" y="1" relative="1" as="geometry">
            <mxPoint x="-1" as="offset" />
          </mxGeometry>
        </mxCell>
        <mxCell id="xRk32n43s2WGwWvrwPpY-133" value="«Annotation»&lt;br&gt;&lt;b&gt;CreateParticipantFormComponent&lt;/b&gt;&lt;br&gt;&lt;br&gt;1. Captura o query para saber se perfil &#39;dúvida&#39; &lt;br&gt;ou &#39;futuro participante&#39;.&lt;br&gt;2. Implementa o formulário e solicita o cadastro." style="html=1;dropTarget=0;labelBackgroundColor=none;fontColor=#000000;" vertex="1" parent="WIyWlLk6GJQsqaUBKTNV-1">
          <mxGeometry x="2910" y="190" width="300" height="200" as="geometry" />
        </mxCell>
        <mxCell id="xRk32n43s2WGwWvrwPpY-134" value="" style="shape=component;jettyWidth=8;jettyHeight=4;" vertex="1" parent="xRk32n43s2WGwWvrwPpY-133">
          <mxGeometry x="1" width="20" height="20" relative="1" as="geometry">
            <mxPoint x="-27" y="7" as="offset" />
          </mxGeometry>
        </mxCell>
        <mxCell id="xRk32n43s2WGwWvrwPpY-135" value="TODO&lt;br&gt;Redirect para onde após o cadastro???&lt;br&gt;- Esconder o topo, não fazer requests quando usuário não logado." style="html=1;labelBackgroundColor=none;fontColor=#000000;" vertex="1" parent="WIyWlLk6GJQsqaUBKTNV-1">
          <mxGeometry x="2810" y="-160" width="441" height="100" as="geometry" />
        </mxCell>
        <mxCell id="xRk32n43s2WGwWvrwPpY-150" style="edgeStyle=orthogonalEdgeStyle;rounded=0;orthogonalLoop=1;jettySize=auto;html=1;fontColor=#000000;" edge="1" parent="WIyWlLk6GJQsqaUBKTNV-1" source="xRk32n43s2WGwWvrwPpY-137" target="xRk32n43s2WGwWvrwPpY-136">
          <mxGeometry relative="1" as="geometry" />
        </mxCell>
        <mxCell id="xRk32n43s2WGwWvrwPpY-137" value="&lt;span style=&quot;background-color: rgb(97 , 97 , 97)&quot;&gt;&lt;font color=&quot;#ffffff&quot;&gt;/acesso-master-duvida?type???=&#39;duvida&#39;&lt;/font&gt;&lt;/span&gt;" style="outlineConnect=0;fontColor=#232F3E;gradientColor=none;strokeColor=#232F3E;fillColor=#ffffff;dashed=0;verticalLabelPosition=bottom;verticalAlign=top;align=center;html=1;fontSize=12;fontStyle=0;aspect=fixed;shape=mxgraph.aws4.resourceIcon;resIcon=mxgraph.aws4.router;labelBackgroundColor=none;" vertex="1" parent="WIyWlLk6GJQsqaUBKTNV-1">
          <mxGeometry x="2990" y="-20" width="60" height="60" as="geometry" />
        </mxCell>
        <mxCell id="xRk32n43s2WGwWvrwPpY-139" value="ParticipantService&lt;br&gt;" style="html=1;labelBackgroundColor=none;fontColor=#000000;" vertex="1" parent="WIyWlLk6GJQsqaUBKTNV-1">
          <mxGeometry x="2630" y="190" width="110" height="100" as="geometry" />
        </mxCell>
        <mxCell id="xRk32n43s2WGwWvrwPpY-142" value="&lt;font color=&quot;#ff1e05&quot; size=&quot;1&quot;&gt;&lt;b style=&quot;font-size: 20px&quot;&gt;API: bf07.2&lt;/b&gt;&lt;/font&gt;" style="text;html=1;strokeColor=none;fillColor=none;align=center;verticalAlign=middle;whiteSpace=wrap;rounded=0;labelBackgroundColor=none;fontColor=#000000;" vertex="1" parent="WIyWlLk6GJQsqaUBKTNV-1">
          <mxGeometry x="2610" y="50" width="40" height="20" as="geometry" />
        </mxCell>
        <mxCell id="xRk32n43s2WGwWvrwPpY-146" value="MessagesService?" style="whiteSpace=wrap;html=1;" vertex="1" parent="WIyWlLk6GJQsqaUBKTNV-1">
          <mxGeometry x="1460" y="610" width="120" height="60" as="geometry" />
        </mxCell>
        <mxCell id="xRk32n43s2WGwWvrwPpY-147" style="edgeStyle=orthogonalEdgeStyle;rounded=0;orthogonalLoop=1;jettySize=auto;html=1;fontColor=#000000;" edge="1" parent="WIyWlLk6GJQsqaUBKTNV-1" source="xRk32n43s2WGwWvrwPpY-81" target="xRk32n43s2WGwWvrwPpY-146">
          <mxGeometry relative="1" as="geometry" />
        </mxCell>
        <mxCell id="xRk32n43s2WGwWvrwPpY-148" value="getNewsComunitations" style="edgeLabel;html=1;align=center;verticalAlign=middle;resizable=0;points=[];fontColor=#000000;" vertex="1" connectable="0" parent="xRk32n43s2WGwWvrwPpY-147">
          <mxGeometry x="-0.4279" y="7" relative="1" as="geometry">
            <mxPoint as="offset" />
          </mxGeometry>
        </mxCell>
      </root>
    </mxGraphModel>
  </diagram>
</mxfile>
